<svg xmlns="http://www.w3.org/2000/svg" version="1.1" xmlns:xlink="http://www.w3.org/1999/xlink" xmlns:svgjs="http://svgjs.dev/svgjs" width="2000" height="1500" viewBox="0 0 2000 1500"><rect width="2000" height="1500" fill="#ffffff"></rect><g transform="matrix(0.75,0,0,0.75,249.090909090909,586.571061327685)"><svg viewBox="0 0 396 86" data-background-color="#ffffff" preserveAspectRatio="xMidYMid meet" height="434" width="2000" xmlns="http://www.w3.org/2000/svg" xmlns:xlink="http://www.w3.org/1999/xlink"><g id="tight-bounds" transform="matrix(1,0,0,1,0.2400000000000091,0.1793816461415929)"><svg viewBox="0 0 395.52 85.64123670771681" height="85.64123670771681" width="395.52"><g><svg viewBox="0 0 535.869003582658 116.03075490531646" height="85.64123670771681" width="395.52"><g><rect width="7.571471216425832" height="84.37837096949568" x="415.34060527860163" y="15.82619196791039" fill="#ed3b43" opacity="1" stroke-width="0" stroke="transparent" fill-opacity="1" class="rect-yte-0" data-fill-palette-color="primary" rx="1%" id="yte-0" data-palette-color="#ed3b43"></rect></g><g transform="matrix(1,0,0,1,0,16.03608841310814)"><svg viewBox="0 0 395.52 83.95857807910018" height="83.95857807910018" width="395.52"><g id="textblocktransform"><svg viewBox="0 0 395.52 83.95857807910018" height="83.95857807910018" width="395.52" id="textblock"><g><svg viewBox="0 0 395.52 83.95857807910018" height="83.95857807910018" width="395.52"><g transform="matrix(1,0,0,1,0,0)"><svg width="395.52" viewBox="1.1444444444444442 -35.95 170.98555555555555 36.300000000000004" height="83.95857807910018" data-palette-color="#ed3b43"><g class="wordmark-text-0" data-fill-palette-color="primary" id="text-0"><path d="M7.35 0.15L7.35 0.15Q5.5 0.15 4-1.33 2.5-2.8 2.5-5.45L2.5-5.45Q2.5-6.75 2.85-8.4 3.2-10.05 3.63-11.75 4.05-13.45 4.4-14.95 4.75-16.45 4.75-17.4L4.75-17.4Q4.75-18.4 4.35-18.98 3.95-19.55 3.3-19.55L3.3-19.55Q2.45-19.55 1.45-18.55L1.45-18.55 1.15-18.75Q1.1-19.55 1.5-20.65 1.9-21.75 2.73-22.78 3.55-23.8 4.85-24.5 6.15-25.2 7.95-25.2L7.95-25.2Q10.6-25.2 11.88-23.68 13.15-22.15 13.15-19.95L13.15-19.95Q13.15-19.15 13-18.4L13-18.4Q14.05-19.95 15.6-21.53 17.15-23.1 19.03-24.15 20.9-25.2 22.9-25.2L22.9-25.2Q25.25-25.2 26.1-23.7 26.95-22.2 26.95-19.95L26.95-19.95Q26.95-17.85 26.5-15.45 26.05-13.05 25.6-10.83 25.15-8.6 25.15-7.1L25.15-7.1Q25.15-5.1 26.3-5.1L26.3-5.1Q26.9-5.1 27.35-5.48 27.8-5.85 27.95-6.2L27.95-6.2 28.3-6.05Q28.3-4.2 27.28-2.8 26.25-1.4 24.7-0.63 23.15 0.15 21.55 0.15L21.55 0.15Q19.6 0.15 18.1-1.2 16.6-2.55 16.6-5.6L16.6-5.6Q16.6-7.4 17.07-9.5 17.55-11.6 18-13.55 18.45-15.5 18.45-16.75L18.45-16.75Q18.45-17.5 18.18-17.93 17.9-18.35 17.2-18.35L17.2-18.35Q16.05-18.35 14.68-17.3 13.3-16.25 12.33-14.5 11.35-12.75 11.35-10.65L11.35-10.65Q11.35-9.3 11.68-8.05 12-6.8 12-5.35L12-5.35Q12-2.65 10.6-1.25 9.2 0.15 7.35 0.15ZM41.7 0.35L41.7 0.35Q38.05 0.35 35.65-1.13 33.25-2.6 32.05-5.03 30.85-7.45 30.85-10.25L30.85-10.25Q30.85-12.9 31.87-15.58 32.9-18.25 34.87-20.45 36.85-22.65 39.67-24 42.5-25.35 46.05-25.35L46.05-25.35Q50.45-25.35 52.47-23.38 54.5-21.4 54.5-18.6L54.5-18.6Q54.5-16.2 53.22-14.18 51.95-12.15 49.85-10.93 47.75-9.7 45.25-9.7L45.25-9.7Q43.95-9.7 42.6-10.1 41.25-10.5 39.95-11.35L39.95-11.35Q40.2-8.25 41.75-6.85 43.3-5.45 45.45-5.45L45.45-5.45Q46.95-5.45 48.45-6.03 49.95-6.6 51.22-7.53 52.5-8.45 53.2-9.5L53.2-9.5 53.55-9.25Q53.55-6.65 52.47-4.83 51.4-3 49.65-1.85 47.9-0.7 45.82-0.18 43.75 0.35 41.7 0.35ZM42.85-13.15L42.85-13.15Q44.45-13.15 45.45-14.08 46.45-15 46.95-16.25 47.45-17.5 47.45-18.45L47.45-18.45Q47.45-19.6 46.8-20.38 46.15-21.15 45-21.15L45-21.15Q44.1-21.15 43.02-20.5 41.95-19.85 41.1-18.28 40.25-16.7 40-13.9L40-13.9Q41.6-13.15 42.85-13.15ZM64.09 0.2L64.09 0.2Q62.5 0.2 61.07-0.53 59.65-1.25 58.77-2.8 57.9-4.35 57.9-6.75L57.9-6.75Q57.9-8.05 58.15-10.15 58.4-12.25 58.82-14.75 59.25-17.25 59.7-19.75L59.7-19.75Q58.7-19.7 57.77-19.55 56.85-19.4 55.95-19.2L55.95-19.2 55.85-19.55Q56.85-20.75 57.95-21.6 59.05-22.45 60.25-23L60.25-23Q60.9-26.3 61.35-28.73 61.8-31.15 61.8-31.6L61.8-31.6Q61.8-32.45 63.12-33 64.45-33.55 66.09-33.55L66.09-33.55Q67.55-33.55 68.82-33 70.09-32.45 70.55-31.15L70.55-31.15Q70.25-30.85 69.7-28.93 69.15-27 68.55-24.25L68.55-24.25Q69.5-24.2 70.5-24.15 71.5-24.1 72.55-24L72.55-24Q72.65-23.7 72.7-23.35 72.75-23 72.75-22.6L72.75-22.6Q72.75-21.85 72.52-20.98 72.3-20.1 72-19.4L72-19.4Q70.8-19.5 69.75-19.63 68.7-19.75 67.7-19.8L67.7-19.8Q67.3-17.65 66.97-15.5 66.65-13.35 66.47-11.6 66.3-9.85 66.3-8.85L66.3-8.85Q66.3-6.75 67.07-6.05 67.84-5.35 68.95-5.35L68.95-5.35Q69.95-5.35 70.75-5.75 71.55-6.15 71.9-6.7L71.9-6.7 72.4-6.55Q72.09-4.5 70.8-2.98 69.5-1.45 67.7-0.63 65.9 0.2 64.09 0.2ZM84.29 0.35L84.29 0.35Q80.99 0.35 78.72-1.15 76.44-2.65 75.29-5.08 74.14-7.5 74.14-10.3L74.14-10.3Q74.14-12.95 75.17-15.6 76.19-18.25 78.19-20.48 80.19-22.7 83.07-24.03 85.94-25.35 89.69-25.35L89.69-25.35Q93.39-25.35 95.19-23.88 96.99-22.4 96.99-20.65L96.99-20.65Q96.99-18.8 95.14-17.25 93.29-15.7 89.74-15.7L89.74-15.7Q89.94-16.45 90.07-17.23 90.19-18 90.19-18.7L90.19-18.7Q90.19-19.75 89.74-20.48 89.29-21.2 88.14-21.2L88.14-21.2Q87.09-21.2 85.92-20.25 84.74-19.3 83.92-17.45 83.09-15.6 83.09-12.9L83.09-12.9Q83.09-10.25 83.97-8.6 84.84-6.95 86.24-6.23 87.64-5.5 89.19-5.5L89.19-5.5Q91.24-5.5 93.14-6.58 95.04-7.65 95.89-9.55L95.89-9.55 96.39-9.35Q96.39-6.75 95.22-4.93 94.04-3.1 92.19-1.93 90.34-0.75 88.24-0.2 86.14 0.35 84.29 0.35ZM104.09 0.2L104.09 0.2Q101.94 0.2 100.64-1.25 99.34-2.7 99.34-5.2L99.34-5.2Q99.34-6.55 99.69-8.72 100.04-10.9 100.57-13.53 101.09-16.15 101.59-18.88 102.09-21.6 102.44-24.15 102.79-26.7 102.79-28.65L102.79-28.65Q102.79-31.1 102.14-32.2L102.14-32.2 102.14-32.5Q103.24-33.75 104.54-34.35 105.84-34.95 107.09-34.95L107.09-34.95Q108.99-34.95 110.34-33.6 111.69-32.25 111.69-29.55L111.69-29.55Q111.69-28.1 111.29-26 110.89-23.9 110.34-21.6 109.79-19.3 109.24-17.3L109.24-17.3Q110.19-19.15 111.77-20.98 113.34-22.8 115.37-24 117.39-25.2 119.59-25.2L119.59-25.2Q122.09-25.2 122.97-23.65 123.84-22.1 123.84-19.8L123.84-19.8Q123.84-17.7 123.39-15.33 122.94-12.95 122.49-10.78 122.04-8.6 122.04-7.15L122.04-7.15Q122.04-5.05 123.29-5.05L123.29-5.05Q123.84-5.05 124.27-5.38 124.69-5.7 124.89-6.1L124.89-6.1 125.24-5.85Q125.24-3.9 124.29-2.55 123.34-1.2 121.87-0.5 120.39 0.2 118.84 0.2L118.84 0.2Q116.79 0.2 115.14-1.18 113.49-2.55 113.49-5.65L113.49-5.65Q113.49-7.4 113.97-9.45 114.44-11.5 114.89-13.43 115.34-15.35 115.34-16.65L115.34-16.65Q115.34-18.35 114.14-18.35L114.14-18.35Q113.04-18.35 111.74-17.25 110.44-16.15 109.47-14.5 108.49-12.85 108.19-11.25L108.19-11.25Q108.09-10.85 108.09-10.3L108.09-10.3Q108.09-9.05 108.47-7.9 108.84-6.75 108.84-5.2L108.84-5.2Q108.84-2.9 107.64-1.35 106.44 0.2 104.09 0.2ZM137.29-26.75L137.29-26.75Q135.29-26.75 134.01-27.98 132.74-29.2 132.74-31.05L132.74-31.05Q132.74-33.05 134.24-34.5 135.74-35.95 137.89-35.95L137.89-35.95Q139.89-35.95 141.16-34.7 142.44-33.45 142.44-31.6L142.44-31.6Q142.44-29.6 140.94-28.18 139.44-26.75 137.29-26.75ZM133.79 0.2L133.79 0.2Q131.84 0.2 130.29-1.18 128.74-2.55 128.74-5.6L128.74-5.6Q128.74-7.35 129.21-8.88 129.69-10.4 130.31-11.85 130.94-13.3 131.41-14.68 131.89-16.05 131.89-17.4L131.89-17.4Q131.89-18.6 131.49-19.13 131.09-19.65 130.54-19.65L130.54-19.65Q129.69-19.65 128.89-18.55L128.89-18.55 128.54-18.75Q128.74-20.75 129.81-22.18 130.89-23.6 132.46-24.4 134.04-25.2 135.59-25.2L135.59-25.2Q137.49-25.2 138.89-23.98 140.29-22.75 140.29-20L140.29-20Q140.29-18.35 139.81-16.53 139.34-14.7 138.71-12.9 138.09-11.1 137.61-9.55 137.14-8 137.14-6.9L137.14-6.9Q137.14-5.95 137.51-5.55 137.89-5.15 138.34-5.15L138.34-5.15Q138.79-5.15 139.21-5.43 139.64-5.7 139.84-6.05L139.84-6.05 140.19-5.95Q140.19-4.1 139.21-2.73 138.24-1.35 136.79-0.58 135.34 0.2 133.79 0.2ZM149.84 0.2L149.84 0.2Q148.49 0.2 147.21-0.48 145.94-1.15 145.14-2.65 144.34-4.15 144.34-6.5L144.34-6.5Q144.34-8.6 144.91-11.43 145.49-14.25 146.21-17.3 146.94-20.35 147.49-23.25 148.04-26.15 147.99-28.4L147.99-28.4Q147.99-30.55 147.49-31.45L147.49-31.45 147.44-31.6Q147.99-33.2 149.39-34.1 150.79-35 152.34-35L152.34-35Q154.09-35 155.46-33.68 156.84-32.35 156.84-29.25L156.84-29.25Q156.84-27.6 156.44-25.33 156.04-23.05 155.49-20.48 154.94-17.9 154.36-15.4 153.79-12.9 153.39-10.8 152.99-8.7 152.99-7.35L152.99-7.35Q152.99-5.95 153.39-5.43 153.79-4.9 154.29-4.9L154.29-4.9Q154.84-4.9 155.34-5.33 155.84-5.75 155.99-6.1L155.99-6.1 156.39-6Q156.34-4.2 155.36-2.8 154.39-1.4 152.91-0.6 151.44 0.2 149.84 0.2ZM165.13 0.2L165.13 0.2Q163.78 0.2 162.51-0.48 161.23-1.15 160.43-2.65 159.63-4.15 159.63-6.5L159.63-6.5Q159.63-8.6 160.21-11.43 160.78-14.25 161.51-17.3 162.23-20.35 162.78-23.25 163.33-26.15 163.28-28.4L163.28-28.4Q163.28-30.55 162.78-31.45L162.78-31.45 162.73-31.6Q163.28-33.2 164.68-34.1 166.08-35 167.63-35L167.63-35Q169.38-35 170.76-33.68 172.13-32.35 172.13-29.25L172.13-29.25Q172.13-27.6 171.73-25.33 171.33-23.05 170.78-20.48 170.23-17.9 169.66-15.4 169.08-12.9 168.68-10.8 168.28-8.7 168.28-7.35L168.28-7.35Q168.28-5.95 168.68-5.43 169.08-4.9 169.58-4.9L169.58-4.9Q170.13-4.9 170.63-5.33 171.13-5.75 171.28-6.1L171.28-6.1 171.68-6Q171.63-4.2 170.66-2.8 169.68-1.4 168.21-0.6 166.73 0.2 165.13 0.2Z" fill="#ed3b43" data-fill-palette-color="primary"></path></g></svg></g></svg></g></svg></g></svg></g><g transform="matrix(1,0,0,1,442.7326817736291,0)"><svg viewBox="0 0 93.1363218090289 116.03075490531646" height="116.03075490531646" width="93.1363218090289"><g><svg xmlns="http://www.w3.org/2000/svg" xmlns:xlink="http://www.w3.org/1999/xlink" version="1.1" x="0" y="0" viewBox="45.6 20 208.69849282724934 260" enable-background="new 0 0 300 300" xml:space="preserve" height="116.03075490531646" width="93.1363218090289" class="icon-icon-0" data-fill-palette-color="accent" id="icon-0"><path d="M253.2 116.8C252.8 116.4 252.4 116 252 115.7 252.2 114.4 252.4 113.1 252.4 111.7 252.4 102.4 246.7 94.2 238.3 90.8 237.2 83.5 232.7 77.3 226.1 74 223.9 63.7 214.8 56 203.9 56H203.1C202 48 196.5 41.1 189 38.2 187.1 27.7 178 20 167 20 159.7 20 153 23.5 148.8 29.2 141.2 29.1 134.2 32.8 130 38.9 128.5 38.6 127 38.4 125.4 38.4 118.4 38.4 111.9 41.6 107.7 47 106.5 46.8 105.4 46.7 104.2 46.7 92.7 46.7 83.2 55.3 81.8 66.4 72.7 68 65.5 75.1 63.6 84.1 53.3 86.2 45.6 95.3 45.6 106.2 45.6 109.9 46.5 113.5 48.2 116.7L48.1 116.8C47.2 118 46.8 119.5 47.1 120.9L78.1 275.9C78.1 276 78.1 276 78.2 276.1 78.3 276.3 78.3 276.6 78.4 276.8 78.4 276.9 78.5 277 78.5 277.1 78.6 277.3 78.7 277.5 78.8 277.6S78.9 277.8 79 277.9C79.1 278.1 79.2 278.2 79.4 278.3L79.7 278.6C79.8 278.7 80 278.8 80.1 278.9S80.3 279 80.4 279.1C80.6 279.2 80.7 279.3 80.9 279.4 81 279.5 81.1 279.5 81.2 279.6 81.4 279.7 81.6 279.7 81.8 279.8 81.9 279.8 82 279.9 82.1 279.9 82.4 280 82.7 280 83 280H217.2C219.6 280 221.6 278.3 222.1 276L254.2 121C254.5 119.5 254.1 118 253.2 116.8M220 143.7L238.7 125H240.7L239.7 129.9 220 149.5zM220 163.7L236 147.7 234.5 155.1 220 169.5zM220 183.7L230.8 172.9 229.3 180.3 220 189.6zM220 203.7L225.7 198 224.2 205.4 220 209.6zM220 223.7L220.5 223.2 220 225.8zM220 129.5V125H224.5zM68.3 93.7C71.1 93.7 73.3 91.5 73.3 88.7 73.3 81.8 78.9 76.2 85.8 76.2H86.4C87.9 76.3 89.3 75.8 90.4 74.7 91.4 73.6 91.9 72.2 91.8 70.7 91.7 70.2 91.7 69.7 91.7 69.3 91.7 62.4 97.3 56.8 104.2 56.8 105.6 56.8 107 57 108.3 57.5 110.6 58.3 113.2 57.3 114.4 55.1 116.6 51 120.8 48.5 125.5 48.5 127.2 48.5 128.9 48.8 130.4 49.5 131.6 50 133 50.1 134.2 49.6S136.4 48.1 137 46.9C139 42.3 143.5 39.3 148.5 39.3 149.1 39.3 149.8 39.4 150.5 39.5 152.6 39.9 154.8 38.8 155.8 36.9 158 32.7 162.2 30.1 166.9 30.1 173.7 30.1 179.2 35.4 179.4 42.3 179.5 44.6 181.1 46.6 183.4 47 189.1 48.2 193.3 53.4 193.3 59.3 193.3 59.9 193.2 60.6 193.1 61.3 192.8 63 193.4 64.8 194.8 66 196.1 67.1 198 67.5 199.7 66.9 201.1 66.4 202.5 66.2 203.8 66.2 210.4 66.2 215.9 71.4 216.3 78 216.4 80.1 217.8 81.8 219.7 82.5 224.8 84.2 228.3 89 228.3 94.3V94.7C228.3 97.1 230 99.1 232.3 99.6 238 100.8 242.2 106 242.2 111.9 242.2 113 242 114.1 241.8 115.1H58.9C58.7 114.6 58.5 114.2 58.2 113.8 56.6 111.6 55.7 109.1 55.7 106.3 55.7 99.3 61.3 93.7 68.3 93.7M177 212.5L154 235.5V229.6L177 206.6zM177 192.5L154 215.5V209.6L177 186.6zM177 172.5L154 195.5V189.6L177 166.6zM177 152.5L154 175.5V169.6L177 146.6zM177 132.5L154 155.5V149.6L177 126.6zM154 135.5V129.6L158.7 124.9H164.6zM154 249.7L177 226.7V232.6L154 255.6zM177 270H173.7L177 266.7zM93.7 270L111 252.7V258.5L99.5 270zM111 238.6L88 261.6V255.7L111 232.7zM111 218.5L88 241.5V235.6L111 212.6zM111 198.5L88 221.5V215.6L111 192.6zM111 178.5L88 201.5V195.6L111 172.6zM111 158.5L88 181.5V175.6L111 152.6zM111 138.5L88 161.5V155.6L111 132.6zM88 141.5V135.6L98.7 125H104.6zM78 213.7L76.1 204.5V204.4L59.6 125H78zM121 241V125H144V270H121zM154 269.7L177 246.7V252.6L159.5 270H154zM187 125H210V270H187zM100.3 89.2V87.2C100.4 86.5 100.5 85.8 100.7 85 101 83.5 101.7 82 102.6 80.6S104.7 77.8 106.2 76.7C106.9 76.2 107.7 75.6 108.5 75.2 108.9 75 109.3 74.8 109.8 74.6L110.4 74.3 110.7 74.2 110.9 74.1H111L111.3 74 112.3 73.7C112.5 73.7 112.6 73.6 112.9 73.6L113.7 73.5C114.8 73.3 115.7 73.3 116.6 73.3 118.4 73.4 120.2 73.7 121.8 74.4 123.4 75 124.8 75.9 126 76.9 126.6 77.4 127.1 77.9 127.6 78.4S128.5 79.5 128.8 80C129.1 80.6 129.4 81.1 129.7 81.6L130.3 83.1C130.4 83.6 130.5 84 130.6 84.5 130.7 84.9 130.7 85.3 130.7 85.7 130.8 86.4 130.6 87 130.6 87.3 130.6 87.7 130.5 87.9 130.5 87.9S130.3 87.8 130.1 87.5C129.8 87.3 129.4 86.9 128.9 86.5 128.7 86.3 128.4 86.1 128.1 85.9S127.5 85.5 127.1 85.3C126.4 84.9 125.7 84.5 124.9 84.1 124.1 83.8 123.2 83.5 122.3 83.3S120.5 83 119.6 82.9 117.8 82.9 116.9 83C116.7 83 116.5 83.1 116.2 83.1 116 83.1 115.9 83.2 115.7 83.2H115.3L115.1 83.3 114.3 83.5H114.2L114 83.6 113.7 83.7 113.1 84 111.9 84.6C111.1 85.1 110.4 85.5 109.7 86.1S108.3 87.3 107.8 88C107.2 88.7 106.7 89.4 106.2 90.2 105.8 91 105.4 91.7 105.1 92.5 105 92.9 104.8 93.2 104.7 93.6L104.4 94.5C104.2 95.1 104.1 95.7 104 96 103.9 96.4 103.9 96.6 103.9 96.6S103.7 96.5 103.5 96.2L103 95.7C102.8 95.5 102.6 95.3 102.4 95S102 94.4 101.8 94 101.4 93.2 101.2 92.7 100.9 91.7 100.8 91.1C100.4 90.5 100.4 89.9 100.3 89.2M143.8 60.3C143.8 60 143.7 59.7 143.8 59.4 143.8 59 143.9 58.6 143.9 58.2 144 57.8 144.1 57.3 144.2 56.8S144.5 55.8 144.8 55.3C145 54.8 145.3 54.3 145.7 53.7 146 53.2 146.5 52.6 146.9 52.1 147.4 51.6 147.9 51 148.5 50.6 149.7 49.6 151.1 48.8 152.7 48.1 154.3 47.5 156.1 47.1 157.9 47S161.6 47.2 163.4 47.8L163.8 47.9H163.9L164.1 48 164.6 48.2C164.8 48.3 164.9 48.3 165.1 48.4L165.8 48.8C166.8 49.3 167.5 49.8 168.3 50.3 169.7 51.4 171 52.8 171.9 54.2 172.8 55.7 173.5 57.2 173.8 58.6 174 59.3 174.1 60.1 174.2 60.8 174.2 61.5 174.3 62.2 174.2 62.8S174.1 64 173.9 64.6 173.6 65.7 173.4 66.2 173 67.1 172.8 67.5 172.4 68.2 172.2 68.5C171.8 69.1 171.4 69.5 171.2 69.8L170.8 70.2S170.7 70 170.7 69.6C170.6 69.2 170.5 68.7 170.3 68.1 170.2 67.8 170.1 67.5 170 67.1 169.9 66.8 169.7 66.4 169.6 66 169.3 65.3 168.9 64.5 168.5 63.8 168 63.1 167.5 62.3 166.9 61.6S165.6 60.3 165 59.7C164.3 59.1 163.5 58.6 162.8 58.2L162.2 57.9C162 57.8 161.9 57.8 161.7 57.7L161.5 57.6S161.4 57.6 161.3 57.5L161.1 57.4 160.6 57.2 160.4 57.1H160.3C159.5 56.9 158.6 56.6 157.8 56.5 156.9 56.4 156 56.3 155.1 56.4S153.3 56.6 152.4 56.8 150.7 57.3 149.8 57.6C149 58 148.2 58.3 147.6 58.8 147.3 59 147 59.2 146.6 59.4 146.3 59.6 146 59.8 145.8 60 145.3 60.3 144.9 60.8 144.6 61S144.2 61.4 144.2 61.4 144.2 61.2 144.1 60.8C143.9 60.8 143.8 60.6 143.8 60.3M173.7 86.9C173.9 86.4 174.2 85.9 174.6 85.3 174.9 84.8 175.4 84.2 175.8 83.7 176.3 83.2 176.8 82.6 177.4 82.2 178.6 81.2 180 80.4 181.6 79.7 183.2 79.1 185 78.7 186.8 78.6S190.5 78.8 192.3 79.4L192.7 79.5H192.8L193 79.6 193.5 79.8C193.7 79.9 193.8 79.9 194 80L194.7 80.4C195.7 80.9 196.4 81.4 197.2 81.9 198.6 83 199.9 84.4 200.8 85.8 201.7 87.3 202.4 88.8 202.7 90.2 202.9 90.9 203 91.7 203.1 92.4 203.1 93.1 203.2 93.8 203.1 94.4S203 95.6 202.8 96.2 202.5 97.3 202.3 97.8 201.9 98.7 201.7 99.1 201.3 99.8 201.1 100.1C200.7 100.7 200.3 101.1 200.1 101.4L199.7 101.8S199.6 101.6 199.6 101.2C199.5 100.8 199.4 100.3 199.2 99.7 199.1 99.4 199 99.1 198.9 98.7 198.8 98.4 198.6 98 198.5 97.6 198.2 96.9 197.8 96.1 197.4 95.4 196.9 94.7 196.4 93.9 195.8 93.2S194.5 91.9 193.9 91.3C193.2 90.7 192.4 90.2 191.7 89.8L191.1 89.5C190.9 89.4 190.8 89.4 190.6 89.3L190.4 89.2S190.3 89.2 190.2 89.1L190 89 189.5 88.8 189.3 88.7H189.2C188.4 88.5 187.5 88.2 186.7 88.1 185.8 88 184.9 87.9 184 88S182.2 88.2 181.3 88.4 179.6 88.9 178.7 89.2C177.9 89.6 177.1 89.9 176.5 90.4 176.2 90.6 175.9 90.8 175.5 91 175.2 91.2 174.9 91.4 174.7 91.6 174.2 91.9 173.8 92.4 173.5 92.6S173.1 93 173.1 93 173.1 92.8 173 92.4C173 92.2 173 92 172.9 91.7 172.9 91.4 172.8 91.1 172.9 90.8 172.9 90.4 173 90 173 89.6 173.1 89.2 173.2 88.7 173.3 88.2 173.3 87.9 173.5 87.4 173.7 86.9" fill="#ff4136" data-fill-palette-color="accent"></path></svg></g></svg></g></svg></g><defs></defs></svg><rect width="395.52" height="85.64123670771681" fill="none" stroke="none" visibility="hidden"></rect></g></svg></g></svg>